<svg xmlns="http://www.w3.org/2000/svg" xmlns:xlink="http://www.w3.org/1999/xlink" width="313" zoomAndPan="magnify" viewBox="0 0 234.75 77.249999" height="103" preserveAspectRatio="xMidYMid meet" version="1.0"><defs><g/><clipPath id="5a00e3f127"><path d="M 68.082031 39 L 90.367188 39 L 90.367188 47.804688 L 68.082031 47.804688 Z M 68.082031 39 " clip-rule="nonzero"/></clipPath><clipPath id="ffaf508c88"><path d="M 24.695312 36.304688 L 46.980469 36.304688 L 46.980469 51.90625 L 24.695312 51.90625 Z M 24.695312 36.304688 " clip-rule="nonzero"/></clipPath><clipPath id="a3c646b287"><path d="M 155.480469 35.113281 L 167.578125 35.113281 L 167.578125 47.210938 L 155.480469 47.210938 Z M 155.480469 35.113281 " clip-rule="nonzero"/></clipPath><clipPath id="6fa7f97000"><path d="M 161.53125 35.113281 C 158.1875 35.113281 155.480469 37.820312 155.480469 41.160156 C 155.480469 44.5 158.1875 47.210938 161.53125 47.210938 C 164.871094 47.210938 167.578125 44.5 167.578125 41.160156 C 167.578125 37.820312 164.871094 35.113281 161.53125 35.113281 Z M 161.53125 35.113281 " clip-rule="nonzero"/></clipPath><clipPath id="490ee1ae44"><path d="M 155.035156 38 L 159 38 L 159 43 L 155.035156 43 Z M 155.035156 38 " clip-rule="nonzero"/></clipPath><clipPath id="04180a47b9"><path d="M 157 35.195312 L 162 35.195312 L 162 40 L 157 40 Z M 157 35.195312 " clip-rule="nonzero"/></clipPath><clipPath id="68c6d00fa2"><path d="M 161 35.195312 L 166 35.195312 L 166 40 L 161 40 Z M 161 35.195312 " clip-rule="nonzero"/></clipPath><clipPath id="c32c87568c"><path d="M 156.792969 39.75 L 166 39.75 L 166 47.082031 L 156.792969 47.082031 Z M 156.792969 39.75 " clip-rule="nonzero"/></clipPath><clipPath id="1182ac1133"><path d="M 164 38 L 167.664062 38 L 167.664062 43 L 164 43 Z M 164 38 " clip-rule="nonzero"/></clipPath></defs><g fill="#87138f" fill-opacity="1"><g transform="translate(15.385185, 52.014991)"><g><path d="M 5.9375 0.15625 C 6.9375 0.15625 9.34375 0.15625 10.453125 0 C 11.09375 -0.078125 11.609375 -0.515625 11.53125 -1.265625 C 11.28125 -3.640625 11.046875 -7.453125 11.09375 -9.75 C 11.125 -12.875 11.53125 -14.609375 12.203125 -14.609375 C 13.03125 -14.609375 13.59375 -12.75 14.1875 -10.375 C 14.578125 -8.953125 15.046875 -7.375 15.53125 -5.90625 C 16.125 -4.125 16.953125 -3.09375 18.421875 -3.09375 C 19.890625 -3.09375 20.796875 -3.96875 21.390625 -5.90625 C 21.78125 -7.328125 22.265625 -8.796875 22.65625 -10.21875 C 23.328125 -12.71875 23.8125 -14.734375 24.671875 -14.734375 C 25.34375 -14.734375 25.75 -13.03125 25.78125 -9.90625 C 25.828125 -7.5625 25.625 -3.6875 25.34375 -1.265625 C 25.265625 -0.515625 25.78125 -0.078125 26.421875 0 C 27.53125 0.15625 29.984375 0.15625 31.015625 0.15625 C 32 0.15625 34.0625 0.125 35.171875 0 C 35.8125 -0.078125 36.28125 -0.546875 36.28125 -1.234375 C 36.046875 -10.734375 34.78125 -20.828125 33.9375 -26.734375 C 33.828125 -27.296875 33.390625 -27.640625 32.796875 -27.734375 C 31.53125 -27.84375 29.4375 -27.890625 28.328125 -27.890625 C 27.21875 -27.890625 25.234375 -27.84375 24.125 -27.734375 C 23.171875 -27.609375 22.53125 -27.21875 22.265625 -26.1875 C 21.859375 -24.828125 21.234375 -22.109375 20.671875 -19.890625 C 20 -17.546875 19.25 -15.71875 18.453125 -15.71875 C 17.625 -15.71875 16.828125 -17.546875 16.125 -20.078125 C 15.609375 -22.0625 15.015625 -24.875 14.65625 -26.1875 C 14.34375 -27.21875 13.703125 -27.609375 12.75 -27.734375 C 11.640625 -27.84375 9.671875 -27.890625 8.515625 -27.890625 C 7.40625 -27.890625 5.1875 -27.84375 4.078125 -27.734375 C 3.484375 -27.640625 3.046875 -27.296875 2.9375 -26.734375 C 2.09375 -20.875 0.828125 -10.734375 0.59375 -1.234375 C 0.59375 -0.546875 1.0625 -0.078125 1.703125 0 C 2.859375 0.125 4.90625 0.15625 5.9375 0.15625 Z M 5.9375 0.15625 "/></g></g></g><g fill="#87138f" fill-opacity="1"><g transform="translate(52.263446, 52.014991)"><g><path d="M 5.9375 -22.859375 C 9.109375 -22.859375 10.734375 -24.515625 10.734375 -26.78125 C 10.734375 -29 9.109375 -30.65625 5.9375 -30.65625 C 2.8125 -30.65625 1.234375 -29 1.234375 -26.78125 C 1.234375 -24.515625 2.8125 -22.859375 5.9375 -22.859375 Z M 6.0625 0.15625 C 7.046875 0.15625 8.90625 0.125 10.0625 0 C 10.609375 -0.078125 11.09375 -0.546875 11.09375 -1.15625 C 11.09375 -8.875 10.6875 -15.53125 10.296875 -20.515625 C 10.265625 -21.078125 9.859375 -21.46875 9.265625 -21.546875 C 8.390625 -21.671875 6.8125 -21.703125 6.015625 -21.703125 C 5.0625 -21.703125 3.609375 -21.671875 2.609375 -21.546875 C 2.0625 -21.46875 1.625 -21.078125 1.578125 -20.515625 C 1.1875 -15.53125 0.796875 -8.875 0.796875 -1.15625 C 0.796875 -0.546875 1.265625 -0.078125 1.859375 0 C 3.046875 0.125 5.0625 0.15625 6.0625 0.15625 Z M 6.0625 0.15625 "/></g></g></g><g fill="#87138f" fill-opacity="1"><g transform="translate(64.186495, 52.014991)"><g><path d="M 5.5 0.15625 C 6.734375 0.15625 9.078125 0.125 10.265625 0 C 10.8125 -0.078125 11.328125 -0.515625 11.28125 -1.15625 C 11.171875 -2.5 11.203125 -4.078125 11.375 -5.1875 C 11.609375 -6.578125 12.875 -7.171875 14.265625 -7.203125 L 15.765625 -7.203125 C 17.1875 -7.171875 18.453125 -6.65625 18.703125 -5.1875 C 18.8125 -4.046875 18.859375 -2.453125 18.78125 -1.1875 C 18.703125 -0.515625 19.203125 -0.078125 19.765625 0 C 20.90625 0.125 23.125 0.15625 24.15625 0.15625 C 25.234375 0.15625 27.5625 0.125 28.71875 0 C 29.390625 -0.046875 29.828125 -0.546875 29.671875 -1.234375 C 28.046875 -10.78125 24.515625 -21.1875 21.75 -27.046875 C 21.59375 -27.453125 21.234375 -27.640625 20.796875 -27.734375 C 19.25 -27.890625 16.4375 -27.890625 14.96875 -27.890625 C 13.46875 -27.890625 10.734375 -27.890625 9.265625 -27.734375 C 8.828125 -27.640625 8.46875 -27.453125 8.3125 -27.046875 C 5.546875 -21.1875 1.984375 -10.78125 0.359375 -1.265625 C 0.203125 -0.59375 0.640625 -0.078125 1.34375 0 C 2.421875 0.078125 4.390625 0.15625 5.5 0.15625 Z M 14.65625 -11.046875 C 13.421875 -11.09375 12.796875 -11.6875 13.078125 -12.671875 C 13.34375 -14.609375 13.859375 -17.078125 14.34375 -19.046875 C 14.734375 -20.3125 15.296875 -20.3125 15.640625 -19.046875 C 16.15625 -17.078125 16.71875 -14.609375 16.953125 -12.671875 C 17.234375 -11.6875 16.640625 -11.09375 15.40625 -11.046875 Z M 14.65625 -11.046875 "/></g></g></g><g fill="#87138f" fill-opacity="1"><g transform="translate(94.211973, 52.014991)"><g><path d="M 8.875 0.3125 C 12.046875 0.3125 14.453125 -1.65625 15.6875 -5.3125 C 15.96875 -6.0625 16.5625 -6.015625 16.5625 -5.1875 C 16.5625 -3.96875 16.390625 -2.859375 16.078125 -1.1875 C 15.921875 -0.46875 16.515625 -0.078125 17.109375 0 C 18.34375 0.125 20.203125 0.15625 21.3125 0.15625 C 22.375 0.15625 24.28125 0.15625 25.265625 0 C 25.90625 -0.125 26.296875 -0.59375 26.296875 -1.265625 C 26.296875 -7.171875 26.109375 -12.90625 25.515625 -20.40625 C 25.46875 -21 25.03125 -21.46875 24.4375 -21.546875 C 23.375 -21.671875 21.90625 -21.703125 20.90625 -21.703125 C 19.890625 -21.703125 17.859375 -21.671875 16.796875 -21.546875 C 16.125 -21.421875 15.6875 -21 15.765625 -20.3125 C 16.078125 -17.828125 16.28125 -14.578125 16.28125 -12.75 C 16.28125 -10.140625 15.375 -7.6875 13.546875 -7.6875 C 11.5625 -7.6875 10.6875 -9.90625 10.6875 -12.4375 C 10.6875 -14.5 11.125 -17.546875 11.6875 -20.3125 C 11.84375 -21 11.328125 -21.46875 10.65625 -21.546875 C 9.546875 -21.671875 7.484375 -21.703125 6.53125 -21.703125 C 5.625 -21.703125 3.796875 -21.671875 2.765625 -21.546875 C 2.171875 -21.46875 1.828125 -21.078125 1.75 -20.4375 C 1.234375 -17.3125 0.796875 -12.359375 0.71875 -9.390625 C 0.75 -2.9375 3.609375 0.3125 8.875 0.3125 Z M 8.875 0.3125 "/></g></g></g><g fill="#87138f" fill-opacity="1"><g transform="translate(121.22698, 52.014991)"><g><path d="M 8.984375 0.3125 C 12.203125 0.3125 14.609375 -1.421875 15.96875 -4.234375 C 16.390625 -5.0625 17 -4.953125 16.90625 -4 C 16.875 -3.125 16.75 -2.140625 16.59375 -1.234375 C 16.484375 -0.546875 17 -0.078125 17.625 0 C 18.703125 0.125 20.5625 0.15625 21.59375 0.15625 C 22.609375 0.15625 24.71875 0.125 25.9375 0 C 26.53125 -0.078125 26.96875 -0.546875 26.96875 -1.1875 C 26.96875 -10.53125 26.53125 -21.421875 26.0625 -27.171875 C 26.015625 -27.765625 25.59375 -28.15625 25.03125 -28.234375 C 23.96875 -28.40625 22.265625 -28.40625 21.234375 -28.40625 C 20.234375 -28.40625 18.09375 -28.40625 16.953125 -28.28125 C 16.3125 -28.15625 15.765625 -27.640625 15.890625 -27.015625 C 16.359375 -24.3125 16.875 -20.4375 17 -17.265625 C 17.03125 -16.203125 16.390625 -16.234375 15.96875 -17 C 14.453125 -20.203125 12.390625 -21.828125 8.953125 -21.828125 C 3.796875 -21.828125 0.46875 -17.46875 0.46875 -10.296875 C 0.46875 -3.25 3.921875 0.3125 8.984375 0.3125 Z M 13.671875 -7.015625 C 11.71875 -7.015625 10.421875 -8.390625 10.421875 -10.65625 C 10.421875 -12.90625 11.6875 -14.453125 13.671875 -14.453125 C 15.5625 -14.453125 16.875 -12.90625 16.875 -10.65625 C 16.875 -8.390625 15.53125 -7.015625 13.671875 -7.015625 Z M 13.671875 -7.015625 "/></g></g></g><g fill="#87138f" fill-opacity="1"><g transform="translate(148.994602, 52.014991)"><g><path d="M 12.71875 0.3125 C 19.84375 0.3125 24.921875 -2.578125 24.921875 -10.171875 C 24.921875 -17.34375 19.890625 -21.859375 12.71875 -21.859375 C 5.546875 -21.859375 0.46875 -17.34375 0.46875 -10.171875 C 0.46875 -2.578125 5.578125 0.3125 12.71875 0.3125 Z M 12.71875 -6.609375 C 10.78125 -6.609375 9.390625 -8.203125 9.390625 -10.734375 C 9.390625 -13.1875 10.734375 -14.96875 12.71875 -14.96875 C 14.6875 -14.96875 16.046875 -13.1875 16.046875 -10.734375 C 16.046875 -8.203125 14.65625 -6.609375 12.71875 -6.609375 Z M 12.71875 -6.609375 "/></g></g></g><g fill="#87138f" fill-opacity="1"><g transform="translate(174.385541, 52.014991)"><g><path d="M 12.75 0.3125 C 15.203125 0.3125 17.421875 -0.046875 19.453125 -0.59375 C 19.921875 -0.796875 20.3125 -1.3125 20.3125 -2.015625 C 20.359375 -3.328125 20.40625 -5.90625 20.359375 -7.375 C 20.3125 -8.3125 19.5625 -8.640625 18.96875 -8.203125 C 18.296875 -7.84375 17 -7.484375 16.15625 -7.484375 C 14.5 -7.484375 13.234375 -8.28125 13.15625 -9.859375 C 13.078125 -11.09375 13.078125 -12.515625 13.1875 -13.90625 C 13.265625 -14.578125 13.703125 -15.015625 14.53125 -15.015625 C 15.765625 -15.015625 17.671875 -14.9375 18.890625 -14.859375 C 19.484375 -14.78125 20 -15.375 20 -16 L 20 -20.4375 C 20 -21.078125 19.484375 -21.59375 18.890625 -21.59375 C 17.34375 -21.59375 15.53125 -21.515625 13.984375 -21.515625 C 13.671875 -21.515625 13.421875 -21.828125 13.421875 -22.296875 C 13.421875 -23.296875 13.625 -24.28125 13.828125 -25.390625 C 13.90625 -26.015625 13.390625 -26.578125 12.75 -26.65625 C 11.640625 -26.78125 9.5 -26.8125 8.515625 -26.8125 C 7.5625 -26.78125 6.09375 -26.78125 5.15625 -26.65625 C 4.59375 -26.578125 4.15625 -26.140625 4.078125 -25.59375 C 3.96875 -24.5625 3.875 -23.125 3.84375 -22.0625 C 3.796875 -21.78125 3.609375 -21.546875 3.28125 -21.546875 L 1.34375 -21.546875 C 0.75 -21.546875 0.3125 -21.078125 0.28125 -20.484375 C 0.28125 -18.96875 0.234375 -17.5 0.28125 -16.046875 C 0.3125 -15.453125 0.75 -14.9375 1.34375 -14.9375 C 1.90625 -14.96875 2.453125 -14.96875 2.96875 -14.96875 C 3.28125 -15.015625 3.5625 -14.78125 3.53125 -14.453125 C 3.203125 -12 3.203125 -9.46875 3.203125 -7.796875 C 3.203125 -2.140625 7.328125 0.3125 12.75 0.3125 Z M 12.75 0.3125 "/></g></g></g><g fill="#87138f" fill-opacity="1"><g transform="translate(195.062716, 52.014991)"><g><path d="M 13.234375 0.3125 C 16.390625 0.3125 20.3125 -0.125 22.53125 -1.421875 C 22.96875 -1.75 23.21875 -2.171875 23.171875 -2.765625 C 23.09375 -4.15625 22.890625 -6.375 22.734375 -7.765625 C 22.609375 -8.90625 21.75 -9.1875 21.15625 -8.46875 C 19.171875 -6.734375 17.109375 -6.015625 14.34375 -6.015625 C 11.890625 -6.015625 9.1875 -7.203125 8.3125 -9.109375 C 7.875 -9.828125 8.359375 -10.265625 8.984375 -9.78125 C 10.578125 -8.75 12.390625 -8.28125 14.296875 -8.28125 C 18.453125 -8.28125 22.34375 -10.78125 22.34375 -14.34375 C 22.34375 -19.375 18.453125 -21.859375 12.203125 -21.859375 C 5.265625 -21.859375 0.46875 -17.9375 0.46875 -11.046875 C 0.46875 -3.71875 5.390625 0.3125 13.234375 0.3125 Z M 12 -11.40625 C 10.6875 -11.40625 8.75 -12 8.75 -13.234375 C 8.75 -14.734375 10.21875 -15.796875 11.765625 -15.796875 C 13.546875 -15.796875 14.265625 -14.890625 14.265625 -13.5 C 14.265625 -12.15625 13.34375 -11.40625 12 -11.40625 Z M 12 -11.40625 "/></g></g></g><g clip-path="url(#5a00e3f127)"><path fill="#ffffff" d="M 89.667969 43.417969 C 89.667969 43.542969 89.769531 43.652344 89.921875 43.832031 C 90.695312 44.738281 90.671875 45.675781 90.253906 46.433594 C 89.839844 47.183594 89.089844 47.613281 88.300781 47.726562 C 86.796875 47.941406 86.097656 47.121094 84.890625 45.988281 C 84.730469 45.839844 84.460938 45.789062 84.355469 45.785156 C 84.355469 45.785156 80.636719 45.644531 79.398438 45.644531 C 78.164062 45.644531 74.445312 45.785156 74.445312 45.785156 C 74.335938 45.789062 74.066406 45.839844 73.90625 45.988281 C 72.703125 47.121094 72.003906 47.941406 70.496094 47.726562 C 69.710938 47.613281 68.960938 47.183594 68.546875 46.433594 C 68.128906 45.675781 68.105469 44.738281 68.878906 43.832031 C 69.03125 43.652344 69.132812 43.542969 69.132812 43.417969 C 69.132812 43.292969 69.03125 43.183594 68.878906 43.003906 C 68.105469 42.097656 68.128906 41.160156 68.546875 40.402344 C 68.960938 39.648438 69.710938 39.222656 70.496094 39.109375 C 72.003906 38.890625 72.703125 39.710938 73.90625 40.847656 C 74.066406 40.996094 74.335938 41.046875 74.445312 41.046875 C 74.445312 41.046875 78.164062 41.1875 79.398438 41.1875 C 80.636719 41.1875 84.355469 41.046875 84.355469 41.046875 C 84.460938 41.046875 84.730469 40.996094 84.890625 40.847656 C 86.097656 39.710938 86.796875 38.890625 88.300781 39.109375 C 89.089844 39.222656 89.839844 39.648438 90.253906 40.402344 C 90.671875 41.160156 90.695312 42.097656 89.921875 43.003906 C 89.769531 43.183594 89.667969 43.292969 89.667969 43.417969 Z M 89.667969 43.417969 " fill-opacity="1" fill-rule="nonzero"/></g><g clip-path="url(#ffaf508c88)"><path fill="#ffffff" d="M 46.601562 66.867188 C 39.496094 66.867188 32.390625 66.867188 25.285156 66.867188 C 25.378906 66.171875 25.128906 65.507812 25.09375 64.820312 C 25.042969 63.835938 24.984375 62.863281 25.089844 61.878906 C 25.148438 61.328125 25.109375 60.777344 25.015625 60.226562 C 24.945312 59.824219 24.699219 59.449219 24.8125 59.019531 C 24.933594 58.5625 24.886719 58.085938 24.867188 57.628906 C 24.835938 56.820312 25.070312 56.070312 25.207031 55.296875 C 25.394531 54.21875 25.964844 53.269531 26.207031 52.210938 C 26.265625 51.960938 26.339844 51.722656 26.265625 51.476562 C 26.109375 50.964844 26.113281 50.421875 25.855469 49.933594 C 25.765625 49.765625 25.789062 49.527344 25.757812 49.328125 C 25.6875 48.871094 25.796875 48.421875 25.773438 47.96875 C 25.738281 47.34375 25.8125 46.722656 25.996094 46.121094 C 26.246094 45.316406 26.105469 44.484375 26.183594 43.667969 C 26.191406 43.578125 26.125 43.484375 26.105469 43.390625 C 26.042969 43.105469 25.949219 42.820312 25.9375 42.535156 C 25.894531 41.550781 25.523438 40.644531 25.269531 39.710938 C 25.058594 38.929688 24.867188 38.164062 25.027344 37.34375 C 25.175781 36.589844 25.578125 36.304688 26.339844 36.46875 C 26.851562 36.582031 27.289062 36.851562 27.683594 37.183594 C 28.582031 37.933594 29.339844 38.824219 30.199219 39.609375 C 30.453125 39.839844 30.746094 40.019531 31.054688 39.957031 C 31.574219 39.855469 32.074219 39.949219 32.574219 39.996094 C 33.140625 40.046875 33.710938 39.910156 34.265625 40 C 35.074219 40.128906 35.898438 39.941406 36.699219 40.160156 C 36.773438 40.179688 36.863281 40.148438 36.945312 40.132812 C 37.5 40.046875 37.882812 39.671875 38.265625 39.316406 C 38.925781 38.699219 39.5625 38.0625 40.296875 37.535156 C 40.941406 37.070312 41.613281 36.78125 42.4375 36.996094 C 42.636719 37.046875 42.6875 37.097656 42.726562 37.296875 C 42.9375 38.460938 42.679688 39.546875 42.289062 40.636719 C 41.96875 41.523438 41.410156 42.355469 41.527344 43.367188 C 41.53125 43.40625 41.515625 43.449219 41.496094 43.484375 C 40.976562 44.402344 41.246094 45.390625 41.355469 46.320312 C 41.453125 47.164062 41.628906 48.007812 41.621094 48.863281 C 41.613281 49.714844 41.398438 50.542969 41.066406 51.335938 C 40.964844 51.582031 40.824219 51.828125 40.910156 52.09375 C 41.070312 52.578125 41.230469 53.070312 41.457031 53.519531 C 41.710938 54.019531 41.816406 54.574219 41.867188 55.085938 C 41.925781 55.660156 42.164062 56.242188 41.980469 56.84375 C 41.945312 56.957031 42.050781 57.082031 42.144531 57.167969 C 42.933594 57.867188 43.25 58.839844 43.628906 59.769531 C 43.996094 60.667969 44.359375 61.566406 44.96875 62.332031 C 46.035156 63.660156 46.730469 65.109375 46.601562 66.867188 Z M 46.601562 66.867188 " fill-opacity="1" fill-rule="nonzero"/></g><path stroke-linecap="butt" transform="matrix(0.740972, 0.0519114, -0.0519114, 0.740972, 36.972645, 47.205579)" fill="none" stroke-linejoin="miter" d="M -0.00202302 0.49765 L 11.179592 0.49978 " stroke="#ffffff" stroke-width="1" stroke-opacity="1" stroke-miterlimit="4"/><path stroke-linecap="butt" transform="matrix(0.733257, -0.118615, 0.118615, 0.733257, 38.425094, 46.842295)" fill="none" stroke-linejoin="miter" d="M 0.000371536 0.49748 L 11.176647 0.499465 " stroke="#ffffff" stroke-width="1" stroke-opacity="1" stroke-miterlimit="4"/><path stroke-linecap="butt" transform="matrix(0.708207, 0.224002, -0.224002, 0.708207, 20.849315, 44.944768)" fill="none" stroke-linejoin="miter" d="M 0.00201695 0.502058 L 11.177095 0.502999 " stroke="#ffffff" stroke-width="1" stroke-opacity="1" stroke-miterlimit="4"/><path stroke-linecap="butt" transform="matrix(0.740972, 0.0519114, -0.0519114, 0.740972, 22.31002, 47.576067)" fill="none" stroke-linejoin="miter" d="M 0.00134978 0.498231 L 11.177719 0.500728 " stroke="#ffffff" stroke-width="1" stroke-opacity="1" stroke-miterlimit="4"/><g clip-path="url(#a3c646b287)"><g clip-path="url(#6fa7f97000)"><path fill="#87138f" d="M 155.480469 35.113281 L 167.578125 35.113281 L 167.578125 47.210938 L 155.480469 47.210938 Z M 155.480469 35.113281 " fill-opacity="1" fill-rule="nonzero"/></g></g><g clip-path="url(#490ee1ae44)"><path fill="#ffffff" d="M 157.296875 42.359375 C 157.324219 42.355469 157.351562 42.351562 157.382812 42.351562 C 157.695312 42.308594 157.96875 42.15625 158.179688 41.925781 C 158.351562 41.738281 158.460938 41.511719 158.527344 41.25 C 158.582031 41.042969 158.589844 40.8125 158.558594 40.585938 C 158.503906 40.128906 158.324219 39.699219 158.019531 39.320312 C 157.925781 39.199219 157.8125 39.078125 157.691406 38.976562 C 157.410156 38.738281 157.125 38.601562 156.816406 38.527344 C 156.613281 38.488281 156.425781 38.472656 156.226562 38.507812 C 155.914062 38.558594 155.652344 38.699219 155.441406 38.929688 C 155.269531 39.117188 155.148438 39.371094 155.097656 39.648438 C 155.066406 39.796875 155.050781 39.941406 155.0625 40.085938 L 155.066406 40.128906 C 155.070312 40.171875 155.074219 40.214844 155.078125 40.257812 L 155.082031 40.296875 C 155.121094 40.625 155.234375 40.933594 155.402344 41.21875 C 155.535156 41.441406 155.695312 41.640625 155.882812 41.8125 C 156.148438 42.050781 156.433594 42.214844 156.742188 42.289062 C 156.933594 42.359375 157.125 42.371094 157.296875 42.359375 " fill-opacity="1" fill-rule="nonzero"/></g><g clip-path="url(#04180a47b9)"><path fill="#ffffff" d="M 157.769531 37.976562 C 157.855469 38.320312 158 38.621094 158.1875 38.878906 C 158.375 39.136719 158.574219 39.324219 158.816406 39.464844 C 159.019531 39.59375 159.234375 39.667969 159.460938 39.679688 L 159.578125 39.679688 C 159.804688 39.679688 160.023438 39.625 160.207031 39.496094 C 160.394531 39.394531 160.566406 39.238281 160.710938 39.050781 C 160.910156 38.792969 161.039062 38.476562 161.097656 38.105469 C 161.109375 37.945312 161.125 37.789062 161.125 37.617188 C 161.125 37.488281 161.109375 37.359375 161.097656 37.230469 C 161.066406 37 161.011719 36.785156 160.925781 36.570312 C 160.78125 36.210938 160.582031 35.910156 160.324219 35.683594 C 160.136719 35.511719 159.933594 35.382812 159.71875 35.308594 C 159.449219 35.210938 159.175781 35.195312 158.902344 35.265625 C 158.644531 35.324219 158.417969 35.46875 158.214844 35.683594 C 158.042969 35.867188 157.929688 36.070312 157.828125 36.3125 C 157.726562 36.601562 157.671875 36.902344 157.671875 37.246094 C 157.671875 37.300781 157.683594 37.359375 157.683594 37.445312 C 157.699219 37.617188 157.726562 37.804688 157.769531 37.976562 " fill-opacity="1" fill-rule="nonzero"/></g><g clip-path="url(#68c6d00fa2)"><path fill="#ffffff" d="M 161.84375 38.648438 C 161.941406 38.9375 162.085938 39.164062 162.285156 39.351562 C 162.542969 39.59375 162.84375 39.738281 163.1875 39.753906 L 163.273438 39.753906 C 163.445312 39.753906 163.605469 39.710938 163.777344 39.710938 C 164.019531 39.609375 164.234375 39.464844 164.449219 39.265625 C 164.664062 39.050781 164.835938 38.808594 164.964844 38.535156 C 165.152344 38.148438 165.253906 37.746094 165.265625 37.316406 C 165.265625 37.074219 165.253906 36.828125 165.195312 36.613281 C 165.125 36.3125 165.023438 36.070312 164.867188 35.855469 C 164.609375 35.496094 164.265625 35.296875 163.863281 35.238281 C 163.847656 35.238281 163.847656 35.238281 163.835938 35.238281 L 163.503906 35.238281 C 163.316406 35.265625 163.117188 35.324219 162.945312 35.425781 C 162.714844 35.554688 162.5 35.738281 162.316406 35.96875 C 162.113281 36.210938 161.972656 36.5 161.855469 36.816406 C 161.753906 37.101562 161.710938 37.402344 161.699219 37.703125 C 161.699219 37.832031 161.699219 37.960938 161.710938 38.089844 C 161.742188 38.289062 161.785156 38.476562 161.84375 38.648438 " fill-opacity="1" fill-rule="nonzero"/></g><g clip-path="url(#c32c87568c)"><path fill="#ffffff" d="M 165.453125 43.492188 C 165.265625 43.222656 165.035156 42.964844 164.765625 42.734375 C 164.578125 42.5625 164.390625 42.375 164.234375 42.175781 C 164.0625 41.960938 163.90625 41.730469 163.773438 41.53125 L 163.675781 41.371094 C 163.574219 41.214844 163.472656 41.070312 163.375 40.914062 C 163.214844 40.683594 163.074219 40.5 162.914062 40.355469 C 162.644531 40.097656 162.328125 39.925781 161.96875 39.839844 C 161.738281 39.78125 161.496094 39.765625 161.265625 39.765625 C 161.050781 39.765625 160.835938 39.808594 160.636719 39.894531 C 160.394531 39.996094 160.175781 40.15625 159.949219 40.371094 C 159.820312 40.5 159.675781 40.65625 159.53125 40.84375 C 159.390625 41.027344 159.261719 41.214844 159.132812 41.402344 L 159.058594 41.515625 C 158.886719 41.746094 158.714844 42.003906 158.515625 42.234375 C 158.34375 42.433594 158.183594 42.589844 158.027344 42.734375 C 157.828125 42.90625 157.625 43.105469 157.46875 43.320312 C 157.238281 43.621094 157.066406 43.953125 156.953125 44.28125 C 156.882812 44.511719 156.839844 44.742188 156.824219 44.96875 C 156.808594 45.171875 156.824219 45.386719 156.867188 45.570312 C 156.980469 46.101562 157.253906 46.53125 157.699219 46.847656 C 157.957031 47.035156 158.242188 47.148438 158.574219 47.175781 C 158.617188 47.191406 158.644531 47.191406 158.6875 47.191406 L 158.902344 47.191406 C 159.03125 47.191406 159.160156 47.175781 159.261719 47.164062 C 159.546875 47.105469 159.832031 47.035156 160.089844 46.960938 L 160.105469 46.960938 C 160.351562 46.90625 160.59375 46.832031 160.835938 46.789062 C 160.9375 46.777344 161.066406 46.746094 161.195312 46.746094 C 161.367188 46.746094 161.523438 46.746094 161.667969 46.761719 C 161.867188 46.789062 162.097656 46.832031 162.34375 46.890625 C 162.457031 46.917969 162.585938 46.960938 162.699219 46.992188 C 162.859375 47.035156 163.03125 47.078125 163.203125 47.121094 C 163.375 47.164062 163.558594 47.207031 163.761719 47.207031 L 164.105469 47.207031 C 164.132812 47.207031 164.148438 47.191406 164.175781 47.148438 C 164.261719 47.148438 164.363281 47.132812 164.449219 47.105469 C 164.679688 47.046875 164.90625 46.949219 165.121094 46.789062 C 165.410156 46.589844 165.640625 46.332031 165.78125 46.03125 C 165.941406 45.703125 166.011719 45.355469 165.996094 44.96875 C 165.984375 44.753906 165.941406 44.511719 165.855469 44.28125 C 165.769531 44.011719 165.640625 43.75 165.453125 43.492188 " fill-opacity="1" fill-rule="nonzero"/></g><g clip-path="url(#1182ac1133)"><path fill="#ffffff" d="M 167.960938 39.648438 C 167.910156 39.371094 167.789062 39.117188 167.613281 38.929688 C 167.40625 38.699219 167.144531 38.558594 166.832031 38.507812 C 166.632812 38.472656 166.445312 38.488281 166.238281 38.527344 C 165.929688 38.601562 165.648438 38.738281 165.371094 38.976562 C 165.246094 39.078125 165.132812 39.199219 165.039062 39.320312 C 164.734375 39.699219 164.554688 40.128906 164.5 40.585938 C 164.46875 40.8125 164.476562 41.042969 164.53125 41.25 C 164.597656 41.511719 164.707031 41.738281 164.878906 41.925781 C 165.089844 42.15625 165.363281 42.308594 165.675781 42.351562 C 165.707031 42.351562 165.734375 42.355469 165.761719 42.359375 C 165.933594 42.371094 166.125 42.359375 166.316406 42.289062 C 166.625 42.214844 166.910156 42.050781 167.175781 41.8125 C 167.363281 41.640625 167.523438 41.441406 167.65625 41.21875 C 167.824219 40.933594 167.933594 40.625 167.976562 40.296875 L 167.980469 40.257812 C 167.984375 40.214844 167.988281 40.171875 167.992188 40.128906 L 167.996094 40.085938 C 168.007812 39.941406 167.988281 39.796875 167.960938 39.648438 " fill-opacity="1" fill-rule="nonzero"/></g></svg>